PathFileType	4	(X/Y/Z)	/home/abdul/Desktop/myosuite/custom_workspace/IK/output/S16_12_3.trc
DataRate	CameraRate	NumFrames	NumMarkers	Units	OrigDataRate	OrigDataStartFrame	OrigNumFrames
200.0	200.0	33	3	mm	200.0	1068	1220
Frame#	Time	V_Shoulder			V_Elbow			V_Wrist		
		X1	Y1	Z1	X2	Y2	Z2	X3	Y3	Z3

1068	5.335	-147.98396802060418	613.8416573813839	292.4589769809986	-274.62978285948435	504.5003904478892	16.486506859414177	-245.0077041383863	345.97990119550843	25.436359875976272
1069	5.34	-148.02899896933957	613.9839818662778	292.47722373933175	-274.6936588392343	504.5069296783648	16.525367270508436	-245.04834215957754	345.99533677784757	25.416452890575247
1070	5.345	-148.0688266162337	614.1242694891256	292.49519803362836	-274.75484531763794	504.5150882924637	16.56342371843395	-245.09062606029062	346.01212249046205	25.39739669656079
1071	5.35	-148.10354515777377	614.2624261648397	292.5128082233393	-274.813218284072	504.5247916383203	16.600505598473454	-245.13430831583847	346.0301396524424	25.37909340105741
1072	5.355	-148.13325218332474	614.3983585026001	292.52996519789457	-274.86866375582497	504.53596355286163	16.636450781146785	-245.17914796126985	346.04926978322214	25.361450282084476
1073	5.36	-148.15804853793603	614.5319741413647	292.5465825031478	-274.9210778585459	504.54852667801276	16.67110578826017	-245.22491109955854	346.0693950857239	25.344379754111873
1074	5.365	-148.1780381827646	614.6631820842391	292.5625764602101	-274.97036687183885	504.56240276726845	16.704325936413703	-245.2713713697442	346.09039890293	25.327799322624443
1075	5.37	-148.1933280532675	614.7918930306674	292.5778662765109	-275.01644724065216	504.577512982145	16.73597544826356	-245.31831037479083	346.11216614752493	25.31163152800353
1076	5.375	-148.20402791531498	614.9180197054014	292.5923741489476	-275.05924555324344	504.59377817806467	16.765927531973237	-245.3655180690709	346.13458370436564	25.29580387908404
1077	5.38	-148.21025021937407	615.0414771832166	292.6060253590077	-275.09869848662265	504.6111191792658	16.79406442942039	-245.41279310552312	346.15754080564204	25.280248776791915
1078	5.385	-148.21210995291088	615.1621832083455	292.6187483597766	-275.1347527204963	504.629457042367	16.820277433852596	-245.4599431426647	346.1809293786909	25.264903428309452
1079	5.39	-148.20972449115905	615.2800585076111	292.6304748547645	-275.167364820844	504.64871330825326	16.844466877805406	-245.5067851117725	346.2046443665241	25.249709752254567
1080	5.395	-148.2032134464002	615.3950270962579	292.6411398685118	-275.1965010943633	504.6688102419905	16.86654209220952	-245.5531454446692	346.2285840212238	25.234614275394343
1081	5.4	-148.19269851590136	615.5070165754919	292.65068180895645	-275.2221374151106	504.6896710605111	16.88642133771959	-245.59886026267444	346.2526501704443	25.219568021443038
1082	5.405	-148.17830332865344	615.6159584207629	292.6590425215705	-275.2442590247529	504.7112201478541	16.904031709395184	-245.6437755273933	346.2767484573422	25.204526392520208
1083	5.41	-148.16015329105366	615.7217882598405	292.6661673352972	-275.2628603079216	504.733383257777	16.91930901595417	-245.6877471541251	346.30078855433453	25.189449043865274
1084	5.415	-148.13837543167503	615.8244461397662	292.6720051003412	-275.2779445442253	504.75608770359815	16.93219763489988	-245.7306410887761	346.32468435115516	25.174299752421213
1085	5.42	-148.11309824526433	615.9238767817856	292.6765082178886	-275.2895236385395	504.7792625351619	16.94265034489564	-245.77233334925768	346.34835411774725	25.159046279911728
1086	5.425	-148.08445153611095	616.0200298233985	292.6796326618543	-275.2976178312368	504.80283870285723	16.950628136823745	-245.81271003244012	346.3717206425916	25.143660231043523
1087	5.43	-148.05256626092833	616.1128600467	292.6813379927741	-275.3022553900622	504.8267492086574	16.956100005019778	-245.85166728781476	346.39471134712505	25.128116907468325
1088	5.435	-148.01757437138937	616.2023275922155	292.68158736398203	-275.30347228538744	504.8509292441802	16.959042720218278	-245.88911125909326	346.41725837695674	25.112395158138128
1089	5.44	-147.9796086564588	616.2883981574769	292.6803475202289	-275.3013118505974	504.87531631580794	16.959440585781223	-245.92495799504186	346.4392986706358	25.09647722668179
1090	5.445	-147.9388025846645	616.3710431796243	292.67758878892016	-275.2958244293745	504.8998503569376	16.95728517880709	-245.95913333090942	346.4607740067646	25.080348596422407
1091	5.45	-147.8952901464521	616.4502400013638	292.67328506416453	-275.2870670116476	504.9244738274649	16.95257507773566	-245.99157274186365	346.48163103028924	25.06399783364217
1092	5.455	-147.8492056967664	616.5259720196547	292.6674137838455	-275.2751028599659	504.94913180064174	16.945315578071778	-246.02222116989668	346.501821258831	25.047416429685804
1093	5.46	-147.80068379800633	616.5982288165482	292.6599558999386	-275.2600011280428	504.97377203747385	16.935518397850856	-246.05103282570275	346.5213010699488	25.03059864247487
1094	5.465	-147.74985906349949	616.6670062716502	292.6508958423144	-275.2418364731904	504.9983450488612	16.92320137445962	-246.0779709670643	346.54003167024774	25.013541337983863
1095	5.47	-147.6968660016457	616.7323066557318	292.6402214762791	-275.2206886643358	505.0228041457086	16.908388154408392	-246.10300765531014	346.55797904726614	24.996243832205014
1096	5.475	-147.64183886087926	616.7941387050608	292.62792405411614	-275.1966421872702	505.0471054772663	16.891107877625878	-246.12612349142995	346.57511390508853	24.978707734103068
1097	5.48	-147.5849114756026	616.8525176760928	292.613998160902	-275.1697858487365	505.07120805798513	16.871394857814394	-246.1473073334435	346.59141158464433	24.960936790033337
1098	5.485	-147.52621711324548	616.9074653802035	292.5984416548807	-275.1402123809103	505.0950737831996	16.849288260363835	-246.16655599663122	346.60685196965676	24.94293673006736
1099	5.49	-147.46588832260582	616.9590101982119	292.5812556026855	-275.10801804776906	505.1186674339747	16.824831779275595	-246.18387393823434	346.6214193792125	24.924715116640115
1100	5.495	-147.4040567836316	617.0071870745029	292.5624442097074	-275.07330225478273	505.1419566714765	16.798073314495056	-246.19927292823076	346.63510244792246	24.906281195901684
